<svg id="Layer_1" enable-background="new 0 0 480.004 480.004" height="512" viewBox="0 0 480.004 480.004" width="512" xmlns="http://www.w3.org/2000/svg"><path d="m463.995 290.844-26.59-21.37 3.69-33.9c1.661-15.285-11.254-28.105-26.46-26.45l-33.9 3.69-21.37-26.58c-9.67-12.013-27.842-11.898-37.41.01l-21.36 26.58-33.91-3.69c-15.219-1.656-28.109 11.212-26.45 26.46l3.69 33.9-26.58 21.37c-11.937 9.608-11.96 27.813.01 37.41l26.58 21.37-3.68 33.9c-1.661 15.288 11.243 28.105 26.45 26.45l33.9-3.69 21.37 26.58c9.592 11.938 27.801 11.961 37.42-.01l21.36-26.58 33.9 3.69c15.191 1.653 28.116-11.149 26.45-26.46l-3.69-33.9 26.58-21.37c11.946-9.599 11.947-27.811 0-37.41zm-166.89-10.84c0-7.72 6.28-14 14-14s14 6.28 14 14-6.28 14-14 14-14-6.28-14-14zm17.657 67.657c-1.563 1.562-3.609 2.343-5.657 2.343-7.064 0-10.712-8.602-5.657-13.657l60-60c3.125-3.124 8.189-3.124 11.314 0 3.124 3.124 3.124 8.19 0 11.314zm56.343 6.343c-7.72 0-14-6.28-14-14s6.28-14 14-14 14 6.28 14 14-6.28 14-14 14zm-259-271c0-37.29 30.632-67.568 68.051-66.992 36.759.566 65.949 31.247 65.949 68.01v39.982h-110c-4.418 0-8 3.582-8 8v33.728c0 4.262-3.218 7.982-7.471 8.255-4.66.299-8.529-3.388-8.529-7.983zm21 344h-58c-4.42 0-8-3.58-8-8s3.58-8 8-8h58c4.42 0 8 3.58 8 8s-3.58 8-8 8zm0-40h-58c-4.42 0-8-3.58-8-8s3.58-8 8-8h58c4.42 0 8 3.58 8 8s-3.58 8-8 8zm176.4 55.9-13.124-16.332c-1.711-2.129-4.389-3.238-7.104-2.942l-20.832 2.274c-25.429 2.772-46.868-18.702-44.1-44.09l2.266-20.834c.295-2.714-.814-5.391-2.942-7.101l-16.334-13.125c-19.944-16.018-19.921-46.369-.01-62.36l16.336-13.135c2.127-1.71 3.235-4.387 2.94-7.1l-2.266-20.835c-2.778-25.486 18.749-46.851 44.08-44.09l20.834 2.266c2.714.295 5.391-.814 7.101-2.942 13.799-17.17 16.511-21.825 25.536-26.627 3.142-1.671 4.824-5.199 4.112-8.686-4.435-21.72-20.891-33.242-39.193-33.242-5.72 0-8.7 3.96-8.7 8v33.73c0 4.26-3.22 7.98-7.47 8.25-4.66.3-8.53-3.38-8.53-7.98v-81.94c0-45.7-36.49-83.62-82.19-84.06-46.14-.44-83.81 36.96-83.81 83v41h-24.7c-20.88 0-38.01 15.68-39.84 36.48l-24.36 276c-2.05 23.33 16.34 43.52 39.85 43.52h264.1c9.287 0 18.177-3.241 25.221-8.958 5.201-4.222 3.031-12.666-3.54-13.968-9.188-1.82-17.411-6.812-23.331-14.173z"/></svg>